<?xml version="1.0" encoding="UTF-8" standalone="no"?>
<!DOCTYPE svg PUBLIC "-//W3C//DTD SVG 1.1//EN" "http://www.w3.org/Graphics/SVG/1.1/DTD/svg11.dtd">
<svg width="100%" height="100%" viewBox="0 0 512 512" version="1.1" xmlns="http://www.w3.org/2000/svg" xmlns:xlink="http://www.w3.org/1999/xlink" xml:space="preserve" xmlns:serif="http://www.serif.com/" style="fill-rule:evenodd;clip-rule:evenodd;stroke-linejoin:round;stroke-miterlimit:2;">
    <g transform="matrix(0.685405,0,0,0.685405,-401.989,-107.95)">
        <g transform="matrix(25.2259,0,0,4.69622,-5092.14,-837.364)">
            <path d="M228.432,370.799L228.432,365.178L227.575,365.178L227.575,364.426L229.636,364.426L229.636,365.178L228.776,365.178L228.776,370.799L228.432,370.799Z" style="fill:white;fill-rule:nonzero;"/>
        </g>
        <g transform="matrix(25.2259,0,0,4.69622,-5092.14,-837.364)">
            <path d="M229.406,370.799L230.405,364.426L230.775,364.426L231.84,370.799L231.448,370.799L231.144,368.869L230.057,368.869L229.771,370.799L229.406,370.799ZM230.156,368.182L231.038,368.182L230.766,366.417C230.684,365.881 230.622,365.44 230.582,365.095C230.549,365.504 230.502,365.91 230.442,366.312L230.156,368.182Z" style="fill:white;fill-rule:nonzero;"/>
        </g>
        <g transform="matrix(25.2259,0,0,4.69622,-5092.14,-837.364)">
            <path d="M232.467,370.799L232.467,364.426L232.985,364.426L233.6,368.938C233.657,369.359 233.699,369.673 233.725,369.882C233.754,369.65 233.8,369.309 233.863,368.86L234.485,364.426L234.948,364.426L234.948,370.799L234.617,370.799L234.617,365.465L233.861,370.799L233.551,370.799L232.799,365.373L232.799,370.799L232.467,370.799Z" style="fill:white;fill-rule:nonzero;"/>
        </g>
        <g transform="matrix(25.2259,0,0,4.69622,-5092.14,-837.364)">
            <path d="M235.581,370.799L236.58,364.426L236.951,364.426L238.015,370.799L237.623,370.799L237.319,368.869L236.232,368.869L235.947,370.799L235.581,370.799ZM236.332,368.182L237.213,368.182L236.942,366.417C236.859,365.881 236.797,365.44 236.757,365.095C236.724,365.504 236.677,365.91 236.617,366.312L236.332,368.182Z" style="fill:white;fill-rule:nonzero;"/>
        </g>
        <g transform="matrix(25.2259,0,0,4.69622,-5092.14,-837.364)">
            <path d="M240.359,364.426L240.703,364.426L240.703,368.108C240.703,368.749 240.674,369.257 240.615,369.634C240.555,370.011 240.449,370.317 240.294,370.554C240.14,370.79 239.938,370.908 239.687,370.908C239.443,370.908 239.244,370.805 239.089,370.599C238.934,370.393 238.824,370.096 238.758,369.706C238.691,369.316 238.658,368.783 238.658,368.108L238.658,364.426L239.002,364.426L239.002,368.104C239.002,368.657 239.023,369.065 239.065,369.328C239.107,369.59 239.179,369.792 239.282,369.934C239.384,370.076 239.509,370.147 239.657,370.147C239.91,370.147 240.09,370.006 240.198,369.725C240.305,369.444 240.359,368.904 240.359,368.104L240.359,364.426Z" style="fill:white;fill-rule:nonzero;"/>
        </g>
        <g transform="matrix(25.2259,0,0,4.69622,-5092.14,-837.364)">
            <path d="M241.625,370.799L241.625,364.426L241.969,364.426L241.969,370.047L243.25,370.047L243.25,370.799L241.625,370.799Z" style="fill:white;fill-rule:nonzero;"/>
        </g>
        <g transform="matrix(25.2259,0,0,4.69622,-5092.14,-837.364)">
            <rect x="244.081" y="364.426" width="0.344" height="6.374" style="fill:white;fill-rule:nonzero;"/>
        </g>
        <g transform="matrix(25.2259,0,0,4.69622,-5092.14,-837.364)">
            <path d="M245.395,370.799L245.395,364.426L246.376,364.426C246.549,364.426 246.681,364.446 246.772,364.486C246.899,364.539 247.006,364.638 247.093,364.784C247.179,364.931 247.249,365.136 247.301,365.399C247.354,365.663 247.38,365.953 247.38,366.269C247.38,366.811 247.31,367.27 247.169,367.645C247.028,368.02 246.774,368.208 246.406,368.208L245.739,368.208L245.739,370.799L245.395,370.799ZM245.739,367.456L246.412,367.456C246.634,367.456 246.792,367.354 246.885,367.152C246.979,366.949 247.025,366.663 247.025,366.295C247.025,366.028 246.998,365.8 246.943,365.61C246.888,365.42 246.815,365.295 246.726,365.234C246.668,365.197 246.561,365.178 246.405,365.178L245.739,365.178L245.739,367.456Z" style="fill:white;fill-rule:nonzero;"/>
        </g>
        <g transform="matrix(25.2259,0,0,4.69622,-5092.14,-837.364)">
            <path d="M247.235,370.799L248.234,364.426L248.604,364.426L249.669,370.799L249.277,370.799L248.973,368.869L247.886,368.869L247.6,370.799L247.235,370.799ZM247.985,368.182L248.867,368.182L248.595,366.417C248.513,365.881 248.451,365.44 248.411,365.095C248.378,365.504 248.331,365.91 248.271,366.312L247.985,368.182Z" style="fill:white;fill-rule:nonzero;"/>
        </g>
        <g transform="matrix(25.2259,0,0,4.69622,-5092.14,-837.364)">
            <path d="M250.19,368.751L250.514,368.682C250.53,369.001 250.565,369.262 250.621,369.467C250.678,369.671 250.765,369.836 250.883,369.962C251.001,370.088 251.134,370.151 251.282,370.151C251.413,370.151 251.529,370.104 251.63,370.008C251.73,369.912 251.805,369.781 251.854,369.614C251.903,369.448 251.928,369.266 251.928,369.069C251.928,368.869 251.904,368.694 251.857,368.545C251.81,368.396 251.732,368.27 251.623,368.169C251.553,368.102 251.399,367.999 251.16,367.858C250.921,367.717 250.754,367.585 250.658,367.46C250.534,367.301 250.441,367.103 250.38,366.867C250.319,366.631 250.289,366.366 250.289,366.073C250.289,365.752 250.326,365.451 250.401,365.171C250.475,364.891 250.584,364.679 250.727,364.534C250.87,364.389 251.029,364.317 251.204,364.317C251.397,364.317 251.567,364.393 251.714,364.545C251.861,364.697 251.975,364.921 252.054,365.217C252.133,365.512 252.176,365.847 252.181,366.221L251.852,366.282C251.834,365.879 251.774,365.575 251.672,365.369C251.569,365.163 251.418,365.06 251.218,365.06C251.01,365.06 250.859,365.154 250.763,365.341C250.668,365.528 250.621,365.753 250.621,366.017C250.621,366.246 250.654,366.434 250.722,366.582C250.788,366.73 250.961,366.881 251.241,367.036C251.52,367.191 251.712,367.327 251.816,367.443C251.967,367.614 252.079,367.83 252.151,368.093C252.223,368.355 252.259,368.657 252.259,368.999C252.259,369.338 252.22,369.658 252.141,369.958C252.061,370.258 251.948,370.491 251.799,370.658C251.651,370.825 251.484,370.908 251.298,370.908C251.063,370.908 250.866,370.824 250.707,370.656C250.548,370.488 250.423,370.235 250.332,369.897C250.242,369.559 250.194,369.178 250.19,368.751Z" style="fill:white;fill-rule:nonzero;"/>
        </g>
        <g id="Franja-Negra" serif:id="Franja Negra" transform="matrix(1.86751,0,0,1.24893,590.637,389.781)">
            <rect x="31.445" y="374.747" width="332.678" height="5.253" style="fill:white;"/>
        </g>
        <g transform="matrix(5.0541,0,0,4.4045,-253.818,-782.999)">
            <path d="M178.679,361.087L181.481,361.087L185.138,366.46L185.138,361.087L187.967,361.087L187.967,370.799L185.138,370.799L181.501,365.466L181.501,370.799L178.679,370.799L178.679,361.087Z" style="fill:white;fill-rule:nonzero;"/>
        </g>
        <g transform="matrix(5.0541,0,0,4.4045,-253.818,-782.999)">
            <path d="M196.689,361.087L199.683,361.087L199.683,366.877C199.683,367.451 199.594,367.994 199.415,368.504C199.236,369.014 198.956,369.46 198.573,369.842C198.191,370.224 197.791,370.492 197.371,370.647C196.788,370.863 196.088,370.971 195.271,370.971C194.798,370.971 194.283,370.938 193.724,370.872C193.165,370.806 192.698,370.674 192.323,370.478C191.947,370.281 191.604,370.002 191.293,369.64C190.981,369.278 190.768,368.904 190.653,368.52C190.468,367.902 190.375,367.354 190.375,366.877L190.375,361.087L193.37,361.087L193.37,367.016C193.37,367.546 193.516,367.96 193.81,368.259C194.104,368.557 194.511,368.706 195.032,368.706C195.549,368.706 195.954,368.559 196.248,368.265C196.542,367.971 196.689,367.555 196.689,367.016L196.689,361.087Z" style="fill:white;fill-rule:nonzero;"/>
        </g>
        <g transform="matrix(5.0541,0,0,4.4045,-253.818,-782.999)">
            <path d="M202.071,361.087L210.114,361.087L210.114,363.161L205.079,363.161L205.079,364.704L209.749,364.704L209.749,366.685L205.079,366.685L205.079,368.6L210.26,368.6L210.26,370.799L202.071,370.799L202.071,361.087Z" style="fill:white;fill-rule:nonzero;"/>
        </g>
        <g transform="matrix(5.0541,0,0,4.4045,-253.818,-782.999)">
            <path d="M211.323,361.087L214.463,361.087L216.649,368.076L218.802,361.087L221.85,361.087L218.246,370.799L214.993,370.799L211.323,361.087Z" style="fill:white;fill-rule:nonzero;"/>
        </g>
        <g transform="matrix(5.0541,0,0,4.4045,-253.818,-782.999)">
            <path d="M222.402,365.95C222.402,364.364 222.844,363.13 223.727,362.246C224.611,361.363 225.841,360.921 227.418,360.921C229.034,360.921 230.28,361.355 231.154,362.223C232.029,363.091 232.466,364.307 232.466,365.87C232.466,367.005 232.275,367.936 231.893,368.663C231.511,369.389 230.959,369.955 230.236,370.359C229.514,370.763 228.614,370.965 227.537,370.965C226.441,370.965 225.535,370.79 224.817,370.441C224.1,370.093 223.518,369.54 223.072,368.785C222.625,368.03 222.402,367.085 222.402,365.95ZM225.404,365.963C225.404,366.943 225.586,367.648 225.95,368.076C226.314,368.505 226.81,368.719 227.437,368.719C228.082,368.719 228.581,368.509 228.935,368.09C229.288,367.67 229.465,366.917 229.465,365.83C229.465,364.916 229.28,364.248 228.911,363.826C228.543,363.405 228.043,363.194 227.411,363.194C226.806,363.194 226.32,363.408 225.953,363.836C225.587,364.265 225.404,364.974 225.404,365.963Z" style="fill:white;fill-rule:nonzero;"/>
        </g>
        <g transform="matrix(5.0541,0,0,4.4045,-253.818,-782.999)">
            <path d="M239.421,361.087L242.422,361.087L242.422,368.408L247.106,368.408L247.106,370.799L239.421,370.799L239.421,361.087Z" style="fill:white;fill-rule:nonzero;"/>
        </g>
        <g transform="matrix(5.0541,0,0,4.4045,-253.818,-782.999)">
            <path d="M254.854,369.196L251.435,369.196L250.965,370.799L247.898,370.799L251.548,361.087L254.821,361.087L258.471,370.799L255.331,370.799L254.854,369.196ZM254.224,367.096L253.151,363.604L252.085,367.096L254.224,367.096Z" style="fill:white;fill-rule:nonzero;"/>
        </g>
        <g transform="matrix(5.0541,0,0,4.4045,-253.818,-782.999)">
            <path d="M259.878,370.799L259.878,361.087L264.88,361.087C265.808,361.087 266.517,361.166 267.007,361.325C267.497,361.484 267.893,361.779 268.193,362.21C268.493,362.641 268.643,363.165 268.643,363.783C268.643,364.322 268.529,364.787 268.299,365.178C268.069,365.569 267.753,365.886 267.351,366.129C267.095,366.283 266.744,366.411 266.298,366.513C266.656,366.632 266.916,366.751 267.08,366.871C267.19,366.95 267.35,367.12 267.56,367.381C267.77,367.641 267.91,367.842 267.981,367.984L269.432,370.799L266.04,370.799L264.436,367.831C264.233,367.447 264.052,367.197 263.893,367.083C263.677,366.932 263.432,366.857 263.158,366.857L262.893,366.857L262.893,370.799L259.878,370.799ZM262.893,365.022L264.158,365.022C264.295,365.022 264.56,364.978 264.953,364.89C265.152,364.85 265.314,364.748 265.44,364.585C265.566,364.422 265.629,364.234 265.629,364.022C265.629,363.708 265.53,363.468 265.331,363.3C265.132,363.132 264.759,363.048 264.211,363.048L262.893,363.048L262.893,365.022Z" style="fill:white;fill-rule:nonzero;"/>
        </g>
        <g transform="matrix(5.0541,0,0,4.4045,-253.818,-782.999)">
            <path d="M270.793,361.087L278.836,361.087L278.836,363.161L273.801,363.161L273.801,364.704L278.471,364.704L278.471,366.685L273.801,366.685L273.801,368.6L278.981,368.6L278.981,370.799L270.793,370.799L270.793,361.087Z" style="fill:white;fill-rule:nonzero;"/>
        </g>
        <g transform="matrix(5.0541,0,0,4.4045,-253.818,-782.999)">
            <path d="M281.045,361.087L285.503,361.087C286.382,361.087 287.092,361.206 287.633,361.445C288.174,361.683 288.621,362.026 288.975,362.472C289.328,362.918 289.584,363.437 289.743,364.028C289.902,364.62 289.982,365.247 289.982,365.91C289.982,366.948 289.864,367.753 289.627,368.325C289.391,368.897 289.063,369.376 288.643,369.762C288.224,370.149 287.773,370.406 287.292,370.534C286.634,370.711 286.038,370.799 285.503,370.799L281.045,370.799L281.045,361.087ZM284.046,363.286L284.046,368.593L284.781,368.593C285.408,368.593 285.854,368.524 286.119,368.384C286.384,368.245 286.592,368.002 286.742,367.656C286.892,367.309 286.967,366.747 286.967,365.97C286.967,364.941 286.8,364.236 286.464,363.856C286.128,363.476 285.572,363.286 284.794,363.286L284.046,363.286Z" style="fill:white;fill-rule:nonzero;"/>
        </g>
        <g transform="matrix(5.0541,0,0,4.4045,-253.818,-782.999)">
            <path d="M291.588,365.95C291.588,364.364 292.03,363.13 292.913,362.246C293.796,361.363 295.026,360.921 296.603,360.921C298.22,360.921 299.465,361.355 300.34,362.223C301.214,363.091 301.651,364.307 301.651,365.87C301.651,367.005 301.46,367.936 301.078,368.663C300.696,369.389 300.144,369.955 299.422,370.359C298.7,370.763 297.8,370.965 296.722,370.965C295.627,370.965 294.72,370.79 294.003,370.441C293.285,370.093 292.703,369.54 292.257,368.785C291.811,368.03 291.588,367.085 291.588,365.95ZM294.589,365.963C294.589,366.943 294.771,367.648 295.136,368.076C295.5,368.505 295.996,368.719 296.623,368.719C297.268,368.719 297.767,368.509 298.12,368.09C298.473,367.67 298.65,366.917 298.65,365.83C298.65,364.916 298.466,364.248 298.097,363.826C297.728,363.405 297.228,363.194 296.596,363.194C295.991,363.194 295.505,363.408 295.139,363.836C294.772,364.265 294.589,364.974 294.589,365.963Z" style="fill:white;fill-rule:nonzero;"/>
        </g>
        <g id="Franja-Guinda" serif:id="Franja Guinda" transform="matrix(1.86751,0,0,1.86751,591.556,157.498)">
            <path d="M345.557,282.61L49.026,282.61C54.813,286.556 60.547,289.1 65.121,290.5C72.088,292.632 76.006,296.293 78.281,300.054C81.605,305.548 81.313,311.441 81.313,313.721C81.313,324.401 71.292,337.132 58.293,336.348C50.71,336.314 43.272,333.371 36.557,328.734C34.799,327.52 33.091,326.19 31.445,324.773L31.445,342.767L363.139,342.767L363.139,324.773C361.492,326.19 359.784,327.52 358.027,328.734C351.31,333.372 343.871,336.315 336.287,336.348C323.29,337.13 313.27,324.4 313.27,313.721C313.27,311.441 312.978,305.548 316.302,300.054C318.578,296.293 322.496,292.632 329.463,290.5C334.037,289.1 339.771,286.556 345.557,282.61Z" style="fill:rgb(121,1,37);"/>
        </g>
        <g transform="matrix(6.64877,0,0,4.4045,-644.865,-845.12)">
            <path d="M220.237,370.799L213.015,370.799C211.872,370.799 211.3,370.427 211.3,369.682C211.3,369.336 211.447,369.042 211.741,368.801C211.929,368.654 212.276,368.497 212.779,368.329C213.23,368.172 213.534,368.009 213.692,367.841C214.069,367.516 214.258,366.226 214.258,363.97L214.258,359.329C214.258,359.213 214.263,358.956 214.274,358.558L214.274,357.755C214.274,356.727 214.111,356.093 213.786,355.852C213.524,355.663 212.874,355.547 211.835,355.505C210.933,355.474 210.482,355.133 210.482,354.483C210.482,353.958 210.854,353.497 211.599,353.098L217.484,349.904C217.851,349.705 218.16,349.605 218.412,349.605C218.748,349.605 218.994,349.741 219.152,350.014C219.267,350.213 219.325,350.602 219.325,351.178L219.325,364.82C219.325,366.205 219.346,367.033 219.388,367.306C219.419,367.589 219.519,367.812 219.686,367.975C219.854,368.137 220.127,368.282 220.505,368.408C221.029,368.575 221.37,368.717 221.527,368.832C221.769,369 221.889,369.283 221.889,369.682C221.889,370.427 221.339,370.799 220.237,370.799Z" style="fill:white;fill-rule:nonzero;"/>
        </g>
        <g transform="matrix(6.64877,0,0,4.4045,-644.865,-845.12)">
            <path d="M241.047,357.551C242.768,357.687 244.121,358.028 245.107,358.574C247.037,359.644 248.002,361.338 248.002,363.656C248.002,365.838 247.21,367.574 245.626,368.864C243.948,370.228 241.603,370.909 238.593,370.909C236.338,370.909 234.507,370.448 233.102,369.525C231.633,368.56 230.899,367.327 230.899,365.827C230.899,364.841 231.214,363.986 231.843,363.262C232.483,362.518 233.311,362.145 234.329,362.145C235.493,362.145 236.374,362.56 236.972,363.388C237.318,363.892 237.533,364.458 237.617,365.088C237.376,365.004 237.172,364.962 237.004,364.962C236.762,364.962 236.537,365.025 236.327,365.151C235.95,365.402 235.761,365.79 235.761,366.315C235.761,366.839 235.965,367.259 236.374,367.574C236.888,367.972 237.513,368.172 238.247,368.172C239.285,368.172 240.177,367.783 240.922,367.007C241.698,366.189 242.086,365.166 242.086,363.939C242.086,362.691 241.672,361.663 240.843,360.855C240.046,360.079 238.986,359.691 237.665,359.691C237.203,359.691 236.626,359.743 235.934,359.848C235.766,359.869 235.63,359.88 235.525,359.88C235.378,359.88 235.242,359.827 235.116,359.722C234.958,359.586 234.88,359.418 234.88,359.219C234.88,359.072 234.948,358.92 235.084,358.762C235.126,358.71 235.367,358.505 235.808,358.149L240.686,354.042C240.025,353.948 239.332,353.9 238.609,353.9C237.235,353.9 236.29,353.984 235.776,354.152C235.147,354.352 234.465,354.824 233.731,355.568C233.228,356.072 232.813,356.324 232.488,356.324C232.289,356.324 232.105,356.25 231.937,356.103C231.769,355.956 231.686,355.789 231.686,355.6C231.686,355.463 231.743,355.28 231.859,355.049L234.581,349.825C234.895,349.227 235.221,348.928 235.556,348.928C235.766,348.928 236.075,349.112 236.485,349.479C236.778,349.752 237.187,349.92 237.712,349.983C238.1,350.025 238.782,350.056 239.757,350.077L246.208,350.077C246.995,350.077 247.483,350.129 247.672,350.234C247.892,350.35 248.002,350.539 248.002,350.801C248.002,351.388 247.562,352.054 246.68,352.799L241.047,357.551Z" style="fill:white;fill-rule:nonzero;"/>
        </g>
        <g transform="matrix(6.64877,0,0,4.4045,-644.865,-845.12)">
            <path d="M264.438,370.799L260.221,370.799C259.655,370.799 259.372,370.631 259.372,370.296C259.372,369.95 259.529,369.462 259.844,368.832C260.473,367.563 261.171,366.32 261.936,365.103L263.636,362.429C265.765,359.072 266.945,357.189 267.176,356.78C267.606,356.035 267.821,355.479 267.821,355.112C267.821,354.818 267.68,354.635 267.396,354.561C267.27,354.519 266.977,354.498 266.515,354.498L262.393,354.498C261.05,354.498 260.004,354.606 259.254,354.821C258.504,355.036 257.772,355.432 257.059,356.009C256.65,356.345 256.33,356.512 256.099,356.512C255.931,356.512 255.782,356.439 255.651,356.292C255.519,356.145 255.454,355.983 255.454,355.804C255.454,355.584 255.559,355.259 255.769,354.829L258.223,349.778C258.496,349.222 258.832,348.944 259.23,348.944C259.471,348.944 259.676,349.012 259.844,349.149L260.332,349.574C260.52,349.731 260.693,349.833 260.851,349.88C261.008,349.928 261.276,349.956 261.653,349.967C261.832,349.977 262.319,349.993 263.117,350.014L270.543,350.014C271.204,350.014 271.613,350.046 271.77,350.109C272.106,350.224 272.274,350.481 272.274,350.879C272.274,351.435 271.65,353.402 270.402,356.78C268.209,362.665 266.825,366.724 266.248,368.958C265.975,369.976 265.755,370.542 265.587,370.658C265.44,370.752 265.057,370.799 264.438,370.799Z" style="fill:white;fill-rule:nonzero;"/>
        </g>
        <g transform="matrix(1.86751,0,0,1.86751,590.636,157.498)">
            <path d="M58.427,332.349C41.313,332.349 25.165,315.345 17.416,300.956C-2.456,264.061 1.848,216.754 27.148,183.505C-1.671,258.438 42.797,287.851 63.95,294.325C78.313,298.721 78.313,310.504 78.313,313.721C78.313,322.504 69.133,333.071 58.427,332.349ZM57.586,299.537C64.911,299.537 70.858,305.484 70.858,312.81C70.858,320.135 64.911,326.082 57.586,326.082C50.261,326.082 44.313,320.135 44.313,312.81C44.313,305.484 50.261,299.537 57.586,299.537Z" style="fill:url(#_Linear1);"/>
        </g>
        <g transform="matrix(-1.86751,0,0,1.86751,1329.36,157.498)">
            <path d="M58.427,332.349C41.313,332.349 25.165,315.345 17.416,300.956C-2.456,264.061 1.848,216.754 27.148,183.505C-1.671,258.438 42.797,287.851 63.95,294.325C78.313,298.721 78.313,310.504 78.313,313.721C78.313,322.504 69.133,333.071 58.427,332.349ZM57.586,299.537C64.911,299.537 70.858,305.484 70.858,312.81C70.858,320.135 64.911,326.082 57.586,326.082C50.261,326.082 44.313,320.135 44.313,312.81C44.313,305.484 50.261,299.537 57.586,299.537Z" style="fill:url(#_Linear2);"/>
        </g>
        <g transform="matrix(2.48993,0,0,2.50486,958.814,571.2)">
            <path d="M0,-3.794C-0.085,-3.872 -0.127,-3.911 -0.212,-3.99C-1.933,-5.714 -3.563,-6.822 -5.052,-7.446C-7.528,-8.482 -9.69,-8.394 -11.461,-6.819C-11.475,-6.808 -11.488,-6.795 -11.502,-6.783C-13.614,-4.838 -14.672,-3.808 -16.794,-1.633C-17.305,-2.69 -17.937,-3.782 -18.699,-4.914C-18.702,-4.918 -18.705,-4.923 -18.707,-4.927C-20.868,-8.12 -23.638,-11.046 -27.076,-13.553C-27.086,-13.56 -27.097,-13.568 -27.107,-13.576C-30.947,-16.338 -37.062,-19.605 -45.465,-23.053C-54.101,-26.597 -59.31,-28.373 -61.093,-28.555C-61.101,-28.556 -61.108,-28.557 -61.115,-28.557C-63.448,-28.799 -64.99,-27.617 -65.959,-25.948C-66.176,-25.574 -66.54,-24.726 -66.54,-24.726C-66.668,-24.73 -67.781,-28.389 -68.138,-29.161C-68.19,-29.273 -68.242,-29.384 -68.297,-29.493C-69.853,-32.624 -71.743,-34.683 -73.959,-35.603C-75.727,-36.336 -78.331,-34.769 -79.013,-34.745C-81.092,-34.67 -87.661,-40.828 -91.284,-42.323C-95.745,-44.163 -99.919,-44.824 -104.097,-42.783C-110.334,-39.734 -115.445,-34.86 -119.447,-28.307C-119.448,-28.306 -119.448,-28.306 -119.448,-28.305C-124.353,-20.721 -126.893,-9.366 -126.727,-0.565C-126.583,7.057 -125.352,14.376 -122.602,20.91C-122.6,20.913 -122.599,20.916 -122.598,20.918C-120.215,26.672 -116.869,31.381 -112.663,34.838C-112.661,34.839 -112.66,34.84 -112.659,34.841C-106.57,40.118 -98.863,42.799 -90.349,42.799C-82.54,42.799 -75.814,40.337 -70.174,36.227C-69.26,35.56 -67.692,34.241 -67.691,34.241C-67.34,34.358 -65.877,38.964 -63.881,40.241C-63.866,40.25 -63.851,40.26 -63.836,40.269C-62.815,40.906 -60.997,41.458 -58.339,41.478C-49.922,41.542 -45.714,41.573 -37.297,41.637C-24.108,41.736 -15.425,39.357 -11.101,36.097C-7.265,33.206 -5.492,29.767 -5.481,25.584C-5.474,22.835 -6.294,20.101 -8.011,17.247C-8.595,16.274 -10.037,14.374 -10.037,14.374C-10.017,14.322 -9.2,14.214 -8.796,14.081C-8.764,14.071 -8.733,14.06 -8.702,14.049C-8.235,13.887 -7.378,13.485 -6.167,12.903C-4.488,12.095 -3.018,11.615 -1.795,11.461C-0.612,11.312 0.614,11.453 1.885,11.011C1.883,15.531 1.883,17.791 1.881,22.312C1.872,24.58 2.089,27.762 1.688,28.343C0.458,30.131 -3.699,32.145 -3.705,34.688C-3.711,37.746 -2.317,39.962 0.568,41.153C0.583,41.16 0.598,41.166 0.613,41.172C1.64,41.588 3.469,41.903 6.127,41.883C12.183,41.837 15.211,41.814 21.267,41.768C23.433,41.752 24.993,41.481 25.96,41.137C29.563,39.853 31.077,36.884 31.045,32.934C31.021,29.827 26.59,26.615 25.55,25.35C25.014,24.697 25.36,20.904 25.326,18.18C25.29,12.779 25.272,10.079 25.237,4.679C26.605,4.366 27.875,4.273 29.045,4.44C29.057,4.442 29.07,4.443 29.081,4.445C30.627,4.67 32.41,5.441 34.412,6.772L34.413,6.772C36.277,7.218 39.018,8.727 40.712,8.35C42.236,8.01 43.553,7.198 44.689,6.007C44.726,9.497 44.745,11.242 44.782,14.733C44.807,17.841 45.214,22.098 44.68,22.986C43.436,25.056 39.353,29.099 39.385,32.369C39.423,36.301 40.849,39.008 43.752,40.544C43.767,40.552 43.782,40.56 43.797,40.568C44.829,41.104 46.664,41.576 49.323,41.556C55.363,41.51 58.383,41.487 64.423,41.441C66.619,41.425 68.189,41.072 69.148,40.627C69.924,40.267 71.046,39.246 71.191,39.258C71.884,39.32 74.796,42.588 77.044,42.585C79.118,42.583 80.994,41.515 82.635,39.163C83.345,39.329 83.7,39.413 84.411,39.583C88.221,40.536 90.554,41.123 91.407,41.276C91.411,41.277 91.416,41.278 91.421,41.279C95.487,41.969 99.054,42.37 102.073,42.364C109.401,42.349 115.167,39.904 119.488,35.465C119.495,35.459 119.501,35.452 119.508,35.445C122,32.922 123.939,29.531 125.364,25.536C126.919,21.174 127.687,16.518 127.687,11.591C127.687,6.425 126.849,1.61 125.107,-2.833C123.804,-6.156 120.012,-10.187 119.848,-11.455C119.713,-12.509 121.484,-16.35 121.472,-19.115C121.459,-21.974 118.779,-28.648 118.779,-28.648L110.252,-42.059C110.246,-42.07 110.238,-42.081 110.231,-42.092C108.178,-45.202 105.965,-46.593 103.694,-46.593C101.963,-46.593 100.101,-43.751 98.625,-42.755C96.258,-41.158 90.061,-40.983 87.552,-39.947C83.408,-38.237 79.982,-36.077 77.259,-33.678C75.116,-31.789 72.008,-27.726 71.845,-27.73C71.62,-27.735 70.168,-29.525 68.933,-29.828C68.918,-29.832 68.903,-29.835 68.888,-29.839C67.864,-30.073 66.059,-29.897 63.443,-28.835C57.498,-26.422 54.526,-25.215 48.582,-22.802C46.422,-21.925 44.886,-20.991 43.957,-20.243C42.615,-19.163 40.836,-16.673 40.785,-16.672C40.238,-16.66 36.404,-19.997 33.853,-18.924C32.799,-18.481 31.984,-17.947 31.393,-17.471C31.071,-17.213 30.299,-16.455 29.105,-15.291C28.912,-15.103 28.698,-14.943 28.486,-14.827C28.447,-14.806 28.408,-14.784 28.37,-14.762C27.665,-14.355 26.707,-13.922 25.497,-13.431C15.977,-9.566 11.217,-7.634 1.698,-3.77C1.008,-3.489 0.441,-3.537 0,-3.794M-38.675,15.376C-38.474,15.407 -38.374,15.423 -38.174,15.454C-36.323,15.782 -34.677,16.532 -33.291,17.777C-32.528,18.462 -32.066,19.266 -32.076,20.298C-32.083,21.022 -32.474,21.419 -33.031,21.701C-34.404,22.396 -36.344,22.427 -38.774,22.105C-38.774,21.903 -38.775,21.802 -38.775,21.6C-38.747,18.995 -38.718,16.919 -38.675,15.376M68.076,0.285C68.113,2.826 68.132,4.096 68.169,6.637C68.303,6.607 68.37,6.591 68.505,6.56C69.861,6.291 71.429,6.464 73.178,7.376C73.238,7.407 73.297,7.44 73.356,7.475C73.546,7.587 74.467,8.175 76.122,9.297C76.133,9.304 76.144,9.311 76.154,9.318C79.005,11.328 81.999,12.751 85.01,13.504C89.005,14.504 96.593,14.475 96.593,14.475C96.595,14.461 95.54,14.092 94.973,13.899C85.086,10.532 78.745,8.4 75.917,6.785C72.096,4.603 69.549,1.686 68.062,-1.77C68.068,-0.948 68.071,-0.537 68.076,0.285M-61.972,-1.899C-62.369,-0.238 -63.104,1.173 -64.223,2.31C-64.23,2.316 -64.236,2.323 -64.242,2.329C-65.648,3.747 -67.259,4.3 -69.055,3.923C-70.816,3.553 -73.316,1.82 -76.122,-2.786C-76.122,-2.787 -76.122,-2.788 -76.123,-2.789C-77.749,-5.459 -79.519,-7.95 -81.433,-10.253C-81.436,-10.256 -81.437,-10.258 -81.439,-10.261C-83.429,-12.67 -85.757,-14.224 -88.38,-14.967C-91.354,-15.81 -93.825,-15.56 -95.739,-13.657C-95.749,-13.647 -95.759,-13.638 -95.769,-13.628C-96.914,-12.512 -97.819,-10.951 -98.474,-8.938C-99.132,-6.912 -99.476,-4.608 -99.523,-2.066C-99.566,0.222 -99.349,2.392 -98.842,4.417C-98.357,6.358 -97.644,7.994 -96.712,9.333C-96.707,9.34 -96.702,9.348 -96.697,9.355C-94.3,12.82 -90.971,14.488 -86.803,15.058C-82.51,15.645 -78.942,14.917 -76.147,12.682C-76.145,12.68 -76.142,12.678 -76.14,12.676C-74.8,11.578 -73.839,10.898 -73.363,10.579C-73.34,10.564 -73.316,10.548 -73.292,10.533C-72.077,9.757 -70.748,9.476 -69.297,9.735C-67.349,10.082 -65.667,11.327 -64.231,13.331C-64.199,13.376 -64.167,13.421 -64.136,13.467C-63.329,14.644 -62.327,17.119 -62.327,17.119C-62.3,17.116 -62.196,13.426 -62.163,11.444C-62.086,6.107 -62.048,3.438 -61.972,-1.899" style="fill:rgb(122,2,37);"/>
        </g>
        <g transform="matrix(2.48993,0,0,2.50486,958.746,571.2)">
            <path d="M-70.404,-19.955C-69.35,-16.292 -68.822,-14.485 -67.764,-10.921C-67.112,-8.72 -66.791,-7.227 -66.803,-6.409C-66.814,-5.673 -67.026,-5.098 -67.439,-4.685C-67.874,-4.25 -68.375,-4.1 -68.931,-4.242C-69.893,-4.487 -71.143,-5.838 -72.678,-8.375C-74.559,-11.486 -76.61,-14.413 -78.821,-17.141C-81.533,-20.487 -84.664,-22.829 -88.222,-23.996C-92.437,-25.379 -95.898,-24.815 -98.614,-22.185C-100.459,-20.398 -102.03,-17.387 -103.141,-13.836C-104.253,-10.284 -104.835,-6.442 -104.9,-2.309C-104.961,1.566 -104.541,5.142 -103.653,8.419C-102.764,11.696 -101.464,14.356 -99.831,16.677C-96.7,21.129 -92.407,23.491 -86.957,23.995C-81.558,24.494 -77.097,23.157 -73.586,20.273C-72.323,19.236 -71.468,18.574 -71.032,18.276C-70.551,17.948 -70.006,17.828 -69.421,17.906C-68.709,18.002 -68.078,18.418 -67.567,19.14C-67.066,19.848 -66.825,20.64 -66.837,21.483C-66.872,23.822 -68.725,26.148 -72.379,28.708C-77.356,32.195 -83.301,34.031 -90.189,33.729C-97.869,33.392 -104.58,30.867 -110.391,26.12C-113.747,23.379 -116.393,19.71 -118.318,15.127C-120.325,10.351 -121.331,5.117 -121.309,-0.565C-121.279,-8.314 -119.429,-15.258 -115.685,-21.391C-112.296,-26.944 -107.962,-31.012 -102.708,-33.595C-99.033,-35.402 -95.403,-34.599 -91.448,-33.145C-87.946,-31.858 -83.968,-29.469 -79.51,-26.158C-79.059,-25.822 -78.669,-25.597 -78.342,-25.482C-77.787,-25.286 -77.034,-25.659 -76.156,-26.573C-75.511,-27.245 -74.824,-27.466 -74.093,-27.196C-73.287,-26.898 -72.576,-26.165 -72.036,-25.037C-71.687,-24.308 -71.149,-22.584 -70.404,-19.955M73.888,31.801C71.265,26.463 69.957,23.886 67.348,18.917C66.981,18.232 66.794,17.596 66.785,17.001C66.778,16.46 66.923,15.974 67.223,15.554C67.591,15.037 68.064,14.732 68.623,14.646C69.359,14.533 70.241,14.72 71.152,15.255C71.33,15.36 72.219,15.95 73.777,17.059C77.095,19.42 80.492,21.198 83.951,22.202C88.613,23.554 93.113,24.132 97.442,23.743C101.059,23.417 103.868,22.147 105.816,19.824C106.838,18.606 107.335,17.031 107.306,15.127C107.277,13.157 106.678,11.443 105.502,9.993C103.958,8.088 100.812,6.125 96.181,4.728C86.77,1.888 80.723,0.131 78.032,-1.326C73.804,-3.614 71.658,-6.976 71.586,-11.73C71.503,-17.236 73.922,-21.908 78.817,-26.021C81.167,-27.994 84.129,-29.673 87.706,-30.987C90.072,-31.856 93.603,-32.67 98.161,-33.144C98.636,-33.194 99.059,-33.274 99.412,-33.4C99.915,-33.581 100.338,-33.933 100.687,-34.392C100.756,-34.483 101.036,-34.984 101.564,-35.629C102.331,-36.565 103.096,-37.034 103.854,-37.034C104.801,-37.034 105.706,-36.372 106.563,-35.048C110.016,-29.663 111.727,-26.97 115.117,-21.585C115.687,-20.713 115.974,-19.89 115.981,-19.115C115.987,-18.372 115.738,-17.746 115.236,-17.274C114.823,-16.887 114.373,-16.693 113.92,-16.693C113.253,-16.693 112.23,-17.217 110.86,-18.194C110.542,-18.421 109.243,-19.392 106.971,-21.1C103.835,-23.458 101.151,-25.075 99.104,-25.329C96.481,-25.655 94.066,-25.409 91.922,-24.704C90.358,-24.189 89.118,-23.327 88.199,-22.154C87.336,-21.051 86.907,-19.845 86.929,-18.52C86.95,-17.315 87.429,-16.431 88.346,-15.844C89.319,-15.221 93.785,-16.247 102.909,-12.334C108.534,-9.922 112.906,-7.232 116.025,-4.343C118.012,-2.502 119.569,-0.194 120.662,2.583C121.755,5.359 122.303,8.362 122.316,11.591C122.328,14.691 121.842,17.613 120.869,20.357C119.895,23.101 118.549,25.37 116.83,27.137C113.156,30.914 108.12,32.541 101.896,32.827C99.039,32.959 95.667,32.748 91.813,32.231C90.996,32.121 88.75,31.639 85.09,30.88C82.967,30.44 81.813,30.242 81.635,30.253C80.998,30.294 80.492,30.603 80.118,31.177C79.79,31.701 79.626,31.962 79.297,32.482C78.599,33.559 77.804,34.108 76.912,34.149C75.687,34.204 74.679,33.411 73.888,31.801M19.12,36.191C19.093,36.177 19.08,36.17 19.053,36.156C19.118,36.19 19.15,36.208 19.215,36.242C19.177,36.221 19.158,36.211 19.12,36.191M20.037,4.6C20.067,10.402 20.082,13.303 20.113,19.105C20.16,23.233 20.25,26.674 20.548,29.238C20.634,29.977 20.991,30.491 21.511,30.753C21.739,30.868 22.317,31.018 23.235,31.185C24.94,31.495 25.802,32.202 25.81,33.289C25.816,34.25 25.358,34.914 24.445,35.275C23.785,35.537 22.713,35.707 21.234,35.783C15.189,36.095 12.166,36.251 6.121,36.563C4.413,36.651 3.222,36.582 2.563,36.354C1.877,36.118 1.531,35.642 1.531,34.933C1.532,34.035 2.394,33.336 4.091,32.799C5.286,32.421 6.069,31.858 6.345,31.691C6.64,31.511 7.078,28.147 7.094,21.403C7.086,15.958 7.082,13.235 7.074,7.789C7.072,6.213 6.867,5.303 6.464,5.072C5.937,4.769 4.748,4.919 2.906,5.509C0.61,6.245 -1.587,5.848 -3.684,6.04C-5.201,6.178 -7.047,6.68 -9.152,7.657C-10.135,8.114 -10.829,8.44 -11.206,8.559C-11.729,8.724 -12.308,8.721 -12.915,8.559C-13.75,8.337 -14.355,7.922 -14.732,7.314C-14.907,7.033 -14.995,6.744 -14.994,6.451C-14.991,5.866 -14.696,5.263 -14.111,4.658C-11.47,1.917 -10.153,0.635 -7.527,-1.752C-6.842,-2.351 -6.023,-2.462 -5.066,-2.105C-4.385,-1.85 -3.655,-1.326 -2.876,-0.569C-2.227,0.062 -1.661,0.496 -1.214,0.749C-0.486,1.16 0.487,1.791 1.696,1.355C11.233,-2.084 16.001,-3.804 25.539,-7.243C27.051,-7.789 28.251,-8.309 29.127,-8.763C29.869,-9.148 30.639,-9.672 31.35,-10.354C32.201,-11.172 32.741,-11.704 32.967,-11.877C33.193,-12.049 33.506,-12.211 33.909,-12.363C34.917,-12.741 35.804,-12.371 36.573,-11.222C38.74,-8.039 39.827,-6.377 42.006,-2.912C42.417,-2.259 42.627,-1.612 42.634,-0.979C42.64,-0.369 42.418,0.192 41.967,0.684C41.594,1.09 41.149,1.359 40.644,1.494C39.758,1.731 38.677,1.415 37.403,0.589C34.88,-1.046 32.621,-1.887 30.657,-2.084C28.792,-2.271 26.724,-1.999 24.478,-1.282C22.561,-0.669 21.327,-0.02 20.773,0.63C20.278,1.212 20.026,2.533 20.037,4.6M62.875,1.482C62.931,5.501 62.958,7.511 63.014,11.53C63.091,17.116 63.242,21.617 63.581,24.915C63.683,25.901 64.021,26.586 64.527,26.943C64.759,27.105 65.339,27.317 66.257,27.558C67.987,28.01 68.879,28.95 68.9,30.37C68.918,31.626 68.468,32.486 67.559,32.943C66.901,33.275 65.818,33.481 64.313,33.559C58.284,33.87 55.269,34.026 49.24,34.337C47.531,34.425 46.337,34.307 45.676,33.984C44.985,33.646 44.631,32.986 44.621,32.015C44.608,30.783 45.464,29.847 47.153,29.168C48.342,28.691 49.111,27.934 49.393,27.733C49.648,27.552 50.077,22.983 49.995,13.829C49.952,10.105 49.93,8.243 49.887,4.52C49.828,-0.46 49.701,-4.633 49.362,-7.799C49.267,-8.684 48.932,-9.246 48.431,-9.451C48.204,-9.545 47.63,-9.598 46.721,-9.588C45.029,-9.569 44.17,-10.156 44.157,-11.388C44.145,-12.479 44.603,-13.359 45.495,-14.044C46.121,-14.525 47.178,-15.047 48.665,-15.583C54.62,-17.731 57.598,-18.805 63.553,-20.952C65.241,-21.561 66.422,-21.786 67.077,-21.609C67.759,-21.424 68.115,-20.758 68.131,-19.639C68.152,-18.219 67.308,-16.926 65.64,-15.778C64.462,-14.968 63.741,-14 63.426,-13.692C63.166,-13.437 62.764,-8.399 62.875,1.482M-26.723,9.293C-22.801,10.769 -19.527,12.571 -16.9,14.606C-14.887,16.166 -13.328,17.864 -12.243,19.696C-11.216,21.429 -10.695,23.128 -10.702,24.845C-10.713,27.506 -11.9,29.624 -14.246,31.358C-18.031,34.157 -25.698,35.482 -37.228,34.889C-45.63,34.457 -49.831,34.241 -58.234,33.809C-59.943,33.721 -61.132,33.465 -61.784,33.031C-62.465,32.577 -62.8,31.792 -62.784,30.702C-62.764,29.319 -61.884,28.406 -60.182,27.966C-58.983,27.656 -58.173,26.984 -57.909,26.836C-57.666,26.7 -57.104,21.982 -56.948,12.38C-56.864,6.167 -56.822,3.061 -56.738,-3.151C-56.67,-8.199 -56.822,-11.262 -57.147,-12.322C-57.346,-12.971 -57.676,-13.553 -58.151,-13.974C-58.391,-14.187 -59.015,-14.564 -59.96,-15.12C-61.439,-15.99 -62.176,-17.068 -62.159,-18.291C-62.136,-19.834 -61.475,-20.581 -60.189,-20.507C-58.523,-20.413 -53.639,-18.869 -45.549,-15.914C-37.737,-13.061 -32.032,-10.359 -28.479,-7.929C-25.967,-6.211 -23.916,-4.154 -22.343,-1.825C-20.915,0.288 -20.206,2.194 -20.218,3.96C-20.23,5.767 -20.935,7.096 -22.299,8.011C-23.164,8.591 -24.639,9.016 -26.723,9.293M-38.103,8.655C-39.877,8.261 -41.343,8.208 -42.446,8.543C-43.102,8.743 -43.512,9.363 -43.648,10.358C-43.818,11.607 -43.931,15.122 -43.997,20.886C-44.03,23.768 -43.91,25.769 -43.606,26.826C-43.397,27.555 -42.792,28.072 -41.865,28.376C-41.108,28.624 -40.11,28.815 -38.888,28.924C-35.398,29.236 -32.659,28.834 -30.695,27.788C-28.163,26.439 -26.882,24.239 -26.856,21.091C-26.829,17.751 -28.091,14.962 -30.635,12.609C-32.769,10.636 -35.265,9.284 -38.103,8.655M-39.939,-8.296C-41.781,-8.902 -42.886,-8.741 -43.287,-7.895C-43.528,-7.388 -43.687,-6.17 -43.709,-4.265C-43.737,-1.812 -43.674,-0.018 -43.504,1.092C-43.367,1.984 -42.986,2.626 -42.383,2.984C-41.96,3.235 -41.348,3.456 -40.563,3.653C-35.982,4.8 -33.674,3.589 -33.64,0.02C-33.62,-1.988 -34.197,-3.762 -35.374,-5.299C-36.386,-6.621 -37.92,-7.632 -39.939,-8.296" style="fill:url(#_Linear3);"/>
        </g>
        <g id="Libro" transform="matrix(1.86751,0,0,1.86751,591.556,157.498)">
            <path d="M197.081,209.996C188.168,209.759 180.928,203.061 180.198,194.276L31.822,144.751C30.775,144.401 30.208,143.267 30.558,142.22C30.907,141.173 32.041,140.607 33.088,140.956L182.771,190.918C183.587,191.191 184.138,191.955 184.138,192.815C184.138,200.142 190,205.856 197.292,205.999L197.462,205.995C204.675,205.767 210.446,200.085 210.446,192.815C210.446,191.955 210.996,191.191 211.813,190.918L361.495,140.956C362.542,140.607 363.676,141.173 364.026,142.22C364.375,143.267 363.809,144.401 362.762,144.751L214.385,194.276C213.65,203.13 206.301,209.864 197.292,210L197.081,209.996ZM188.383,187.919L41.298,137.056L40.119,123.082C107.253,160.42 118.118,131.815 195.887,178.159C164.402,146.508 137.89,140.305 115.009,136.662C91.208,132.872 71.256,130.785 53.61,105.031C52.986,104.12 53.219,102.875 54.13,102.251C55.04,101.627 56.286,101.859 56.91,102.77C73.752,127.351 92.921,129.094 115.638,132.712C138.798,136.399 165.573,141.844 197.292,173.097L197.663,172.732C229.22,141.802 255.876,136.385 278.946,132.712C301.662,129.094 320.832,127.351 337.674,102.77C338.297,101.859 339.543,101.627 340.454,102.251C341.364,102.875 341.597,104.12 340.973,105.031C323.328,130.785 303.376,132.872 279.575,136.662C256.694,140.305 230.181,146.508 198.696,178.159C276.466,131.814 287.33,160.421 354.464,123.082L353.285,137.056L206.201,187.919C204.393,184.884 201.078,182.849 197.292,182.849C193.505,182.849 190.191,184.884 188.383,187.919Z" style="fill:rgb(94,94,94);"/>
        </g>
        <g transform="matrix(1.86751,0,0,1.86751,591.167,157.498)">
            <path d="M84.85,116.454L104.438,124.775L140.168,116.423L165.644,122.127L181.35,137.941L213.65,137.941L229.356,122.127L260.629,116.423L290.562,124.775L310.15,116.454L310.15,106.552L290.562,114.873L260.629,106.521L229.356,112.225L213.65,128.039L181.35,128.039L165.644,112.225L140.168,106.521L104.438,114.873L84.85,106.552L84.85,116.454ZM79.053,83.314L79.053,93.314L110.037,93.314L112.194,92.181L105.735,83.314L79.053,83.314ZM315.947,83.314L315.947,93.314L284.963,93.314L282.806,92.181L289.265,83.314L315.947,83.314ZM154.756,69.833C143.687,73.879 136.708,79.483 136.363,85.692C134.78,83.572 133.931,81.332 133.931,79.018C133.931,71.896 141.965,65.485 154.756,61.04L154.756,69.833ZM240.244,61.04C253.035,65.485 261.069,71.896 261.069,79.018C261.069,81.332 260.22,83.572 258.637,85.692C258.292,79.483 251.313,73.879 240.244,69.833L240.244,61.04ZM116.191,62.518L116.191,72.518L127.054,66.278L116.191,62.518ZM278.809,62.518L278.809,72.518L267.946,66.278L278.809,62.518Z" style="fill:white;"/>
        </g>
        <g transform="matrix(1.86751,0,0,1.86751,591.167,157.498)">
            <path d="M240.244,61.04L240.244,61.04L258.65,57.693L278.809,62.518L267.946,66.278L278.809,72.518L306.783,73.782L315.947,83.314L289.265,83.314L282.806,92.181L310.15,106.552L290.562,114.873L260.629,106.521L229.356,112.225L213.65,128.039L181.35,128.039L165.644,112.225L140.168,106.521L104.438,114.873L84.85,106.552L112.194,92.181L105.735,83.314L79.053,83.314L88.217,73.782L116.191,72.518L127.054,66.278L116.191,62.518L136.35,57.693L154.756,61.04L154.756,61.04C141.965,65.485 133.931,71.896 133.931,79.018C133.931,92.428 162.415,103.315 197.5,103.315C232.585,103.315 261.069,92.428 261.069,79.018C261.069,71.896 253.035,65.485 240.244,61.04Z" style="fill:url(#_Linear4);"/>
        </g>
        <g transform="matrix(1.86751,0,0,1.86751,591.167,157.498)">
            <path d="M240.066,60.056L240.045,60.06C240.025,60.064 240.006,60.068 239.988,60.073L239.987,60.074C239.809,60.121 239.652,60.215 239.529,60.341L239.527,60.343C239.514,60.356 239.501,60.37 239.489,60.385L239.477,60.399L239.463,60.416L239.45,60.433L239.433,60.456L239.422,60.471L239.409,60.49L239.399,60.505C239.389,60.522 239.379,60.538 239.37,60.555L239.37,60.555C239.289,60.7 239.244,60.866 239.244,61.04L239.244,61.04L239.244,69.833C239.244,70.252 239.507,70.628 239.901,70.772C246.366,73.135 251.41,76.023 254.473,79.278C256.297,81.216 257.403,83.272 257.613,85.421C255.597,87.983 252.412,90.351 248.335,92.477C236.869,98.454 218.359,102.315 197.5,102.315C176.641,102.315 158.131,98.454 146.665,92.477C142.588,90.351 139.403,87.983 137.387,85.421C137.597,83.272 138.703,81.216 140.527,79.278C143.59,76.023 148.634,73.135 155.099,70.772C155.493,70.628 155.756,70.252 155.756,69.833L155.756,61.04C155.756,60.716 155.599,60.412 155.335,60.225C155.214,60.139 155.077,60.082 154.934,60.056L154.934,60.056L136.529,56.709C136.392,56.684 136.252,56.688 136.117,56.721L115.954,61.547L115.802,61.597L115.659,61.671L115.517,61.779L115.419,61.882L115.316,62.034L115.246,62.189L115.206,62.346L115.191,62.51L115.191,71.562L88.172,72.783C87.916,72.794 87.674,72.904 87.497,73.089L78.331,82.622L78.258,82.708C78.143,82.858 78.07,83.041 78.055,83.241L78.053,83.314L78.053,93.314C78.053,93.866 78.5,94.314 79.053,94.314L105.985,94.314L84.382,105.669L84.234,105.764L84.11,105.88L84.001,106.023L83.922,106.178L83.871,106.345L83.85,106.521L83.85,106.552L83.85,116.454C83.85,116.855 84.089,117.218 84.459,117.375L104.036,125.691C104.134,125.734 104.239,125.762 104.35,125.771L104.509,125.772C104.568,125.768 104.625,125.759 104.68,125.745L140.173,117.449C140.173,117.449 165.14,123.039 165.14,123.039C165.14,123.039 180.641,138.646 180.641,138.646C180.697,138.703 180.76,138.752 180.828,138.794L180.859,138.812C180.991,138.887 181.141,138.932 181.3,138.94L181.35,138.941C181.35,138.941 213.65,138.941 213.65,138.941L213.7,138.94C213.859,138.932 214.009,138.887 214.141,138.812L214.172,138.794C214.24,138.752 214.303,138.703 214.359,138.646L229.844,123.054C229.844,123.054 260.582,117.448 260.582,117.448L290.279,125.734C290.349,125.755 290.423,125.768 290.499,125.773L290.629,125.773C290.748,125.765 290.86,125.737 290.964,125.691L310.541,117.375C310.911,117.218 311.15,116.855 311.15,116.454L311.15,106.552L311.135,106.38L311.09,106.211L311.017,106.053L310.917,105.91L310.793,105.786L310.647,105.685L310.616,105.667L289.015,94.314L315.947,94.314C316.5,94.314 316.947,93.866 316.947,93.314L316.947,83.307L316.945,83.241C316.93,83.041 316.857,82.858 316.742,82.708L316.668,82.621L307.503,73.089C307.326,72.904 307.084,72.794 306.828,72.783L279.809,71.562L279.809,62.503L279.794,62.346L279.754,62.189L279.67,62.009L279.566,61.864L279.438,61.74L279.307,61.65L279.16,61.582L279.042,61.545L258.883,56.721C258.748,56.688 258.608,56.684 258.471,56.709L240.066,60.056ZM182.35,129.039L182.35,136.941L212.65,136.941L212.65,129.039L182.35,129.039ZM180.35,128.452L166.669,114.677L166.743,121.815L180.35,135.515L180.35,128.452ZM228.356,114.651L214.65,128.452L214.65,135.515L228.356,121.714L228.356,114.651ZM151.01,61.375L136.378,58.715L119.755,62.693L127.381,65.333C127.751,65.461 128.013,65.794 128.05,66.184C128.086,66.574 127.892,66.95 127.552,67.145L116.689,73.385L116.527,73.46L116.354,73.504L116.236,73.517C116.236,73.517 88.662,74.763 88.662,74.763C88.662,74.763 81.401,82.314 81.401,82.314L105.735,82.314L105.807,82.317C105.953,82.327 106.09,82.369 106.212,82.435L106.36,82.533L106.487,82.655L106.543,82.725C106.543,82.725 113.002,91.592 113.002,91.592L113.099,91.754L113.162,91.93L113.192,92.113L113.187,92.301L113.146,92.486L113.073,92.658L112.969,92.813L112.838,92.946L112.683,93.053L110.503,94.199L87.181,106.457C87.181,106.457 104.528,113.825 104.528,113.825L139.94,105.547L140.077,105.525C140.116,105.522 140.154,105.521 140.192,105.521C140.264,105.523 140.334,105.532 140.401,105.549L165.862,111.249L166.032,111.303L166.095,111.332C166.137,111.354 166.178,111.378 166.217,111.406C166.266,111.44 166.311,111.478 166.353,111.52C166.353,111.52 181.766,127.039 181.766,127.039L213.234,127.039L228.647,111.52C228.686,111.481 228.728,111.445 228.772,111.413C228.81,111.386 228.85,111.362 228.891,111.34C228.968,111.299 229.05,111.269 229.137,111.249L229.177,111.241L260.461,105.535C260.487,105.531 260.485,105.532 260.509,105.528L260.707,105.524L260.788,105.534C260.83,105.541 260.872,105.55 260.913,105.562L290.494,113.816L307.818,106.457L282.341,93.066L282.183,92.963L282.048,92.833L281.94,92.682L281.862,92.511L281.817,92.327L281.807,92.14L281.832,91.956L281.89,91.779L281.982,91.614C281.987,91.607 281.992,91.599 281.998,91.592L288.457,82.725L288.574,82.591L288.712,82.481L288.788,82.435C288.91,82.369 289.048,82.327 289.194,82.317L289.265,82.314C289.265,82.314 313.599,82.314 313.599,82.314C313.599,82.314 306.338,74.763 306.338,74.763L278.764,73.517L278.586,73.493L278.418,73.438L278.311,73.385L267.448,67.145C267.108,66.95 266.914,66.574 266.95,66.184C266.987,65.794 267.249,65.461 267.619,65.333C267.619,65.333 275.245,62.693 275.245,62.693L258.622,58.715L243.99,61.375C246.467,62.374 248.729,63.453 250.749,64.599L250.812,64.635L250.871,64.668C251.064,64.779 251.256,64.89 251.445,65.002L251.5,65.035L251.635,65.115L251.695,65.152C251.839,65.238 251.982,65.325 252.123,65.412L252.168,65.44L252.248,65.49L252.299,65.522L252.359,65.559L252.378,65.571L252.43,65.604L252.559,65.686L252.688,65.768L252.816,65.851L252.879,65.891L252.944,65.933L252.99,65.964L253.014,65.979L253.07,66.016L253.121,66.05L253.148,66.068L253.196,66.099L253.228,66.12L253.261,66.142L253.321,66.182L253.445,66.266L253.544,66.333L253.568,66.35L253.615,66.382L253.648,66.405L253.69,66.434L253.727,66.459L253.752,66.476L253.777,66.493L253.812,66.518L253.855,66.547L253.889,66.571L253.933,66.602L253.957,66.619L254.053,66.686L254.172,66.771L254.217,66.804L254.261,66.835L254.29,66.856L254.327,66.883L254.361,66.907L254.408,66.941L254.436,66.962L254.461,66.98L254.491,67.002L254.524,67.026L254.56,67.052L254.601,67.083L254.64,67.112L254.658,67.125L254.755,67.197L254.853,67.27L254.869,67.283L254.906,67.311L254.949,67.343L254.983,67.369L255.013,67.392L255.045,67.417L255.07,67.436L255.095,67.455L255.14,67.49L255.175,67.517L255.207,67.541L255.235,67.563L255.284,67.602L255.325,67.634C255.358,67.659 255.39,67.685 255.423,67.711L255.515,67.784L255.536,67.801L255.567,67.826L255.607,67.858L255.645,67.889L255.67,67.909L255.699,67.932L255.727,67.956L255.752,67.976L255.79,68.007L255.829,68.039L255.859,68.063L255.88,68.081L255.964,68.151L255.968,68.154C256,68.18 256.032,68.207 256.063,68.234L256.148,68.305L256.173,68.327L256.2,68.349L256.235,68.38L256.276,68.415L256.297,68.433L256.323,68.455L256.354,68.482L256.379,68.503L256.409,68.53L256.453,68.568L256.495,68.605L256.581,68.68L256.665,68.756L256.68,68.769L256.706,68.792L256.75,68.831L256.779,68.858L256.802,68.879L256.833,68.907L256.857,68.929L256.877,68.947L256.916,68.983L256.95,69.015L256.974,69.036L256.998,69.059L257.047,69.104L257.075,69.131C257.104,69.158 257.134,69.186 257.163,69.213L257.241,69.288L257.26,69.305L257.283,69.328L257.321,69.364L257.353,69.395L257.373,69.415L257.4,69.441L257.426,69.466L257.446,69.486L257.478,69.517L257.515,69.553L257.538,69.576L257.556,69.594L257.631,69.669C257.659,69.697 257.686,69.725 257.714,69.753L257.785,69.825L257.808,69.848L257.829,69.87L257.861,69.902L257.896,69.939L257.913,69.957L257.935,69.98L257.963,70.009L257.983,70.03L258.009,70.057L258.048,70.099L258.082,70.135L258.155,70.213C260.527,72.766 261.869,75.512 262.048,78.359L262.05,78.394C262.063,78.602 262.069,78.81 262.069,79.018C262.069,79.053 262.069,79.088 262.068,79.123L262.068,79.143C262.068,79.174 262.067,79.204 262.067,79.234L262.066,79.254L262.066,79.283L262.064,79.33C261.993,81.74 261.091,84.078 259.438,86.29C259.396,86.346 259.35,86.396 259.299,86.441C257.118,89.288 253.705,91.933 249.259,94.25C237.582,100.337 218.742,104.315 197.5,104.315C176.258,104.315 157.418,100.337 145.741,94.25C141.295,91.933 137.882,89.288 135.701,86.441C135.65,86.396 135.604,86.346 135.562,86.29C133.909,84.078 133.007,81.74 132.936,79.33L132.934,79.283L132.934,79.254L132.933,79.234C132.933,79.204 132.932,79.173 132.932,79.143L132.932,79.123C132.931,79.088 132.931,79.053 132.931,79.018L132.931,78.983C132.931,78.872 132.934,78.76 132.938,78.649C132.942,78.527 132.948,78.406 132.957,78.286C132.965,78.164 132.976,78.043 132.989,77.922C133.027,77.56 133.084,77.199 133.159,76.841C133.271,76.307 133.425,75.778 133.618,75.253C133.725,74.964 133.844,74.676 133.975,74.39C134.01,74.315 134.045,74.24 134.081,74.166C134.144,74.034 134.21,73.903 134.278,73.772L134.298,73.735C134.31,73.712 134.322,73.689 134.334,73.667L134.359,73.62C134.413,73.521 134.467,73.423 134.524,73.324C134.578,73.228 134.634,73.133 134.691,73.039C134.796,72.864 134.905,72.691 135.019,72.518L135.06,72.456C135.122,72.364 135.185,72.271 135.249,72.179L135.295,72.114C135.31,72.092 135.326,72.07 135.342,72.048L135.39,71.981C135.606,71.68 135.837,71.381 136.081,71.085C136.18,70.965 136.281,70.845 136.385,70.725C136.533,70.554 136.687,70.383 136.845,70.213C136.872,70.184 136.898,70.155 136.925,70.127L136.991,70.057L137.017,70.03L137.036,70.01L137.065,69.98L137.088,69.956L137.104,69.939L137.139,69.902L137.172,69.869L137.192,69.848L137.215,69.825L137.282,69.757L137.286,69.753C137.314,69.725 137.342,69.696 137.369,69.668L137.444,69.594L137.462,69.576L137.484,69.554L137.522,69.517L137.554,69.486L137.573,69.467L137.6,69.441L137.628,69.414L137.647,69.395L137.679,69.364L137.718,69.327L137.74,69.305L137.759,69.288L137.837,69.214C137.866,69.186 137.896,69.158 137.925,69.13L138.002,69.059L138.026,69.036L138.049,69.016L138.084,68.983L138.123,68.947L138.142,68.93L138.167,68.907L138.199,68.878L138.221,68.858L138.25,68.831L138.296,68.79L138.335,68.756L138.42,68.68L138.505,68.605L138.52,68.591L138.545,68.57L138.591,68.53L138.621,68.503L138.645,68.483L138.677,68.455L138.704,68.432L138.724,68.415L138.765,68.38L138.802,68.348L138.827,68.327L138.852,68.305L138.931,68.239L138.936,68.234C138.968,68.207 139,68.18 139.032,68.153L139.12,68.081L139.141,68.063L139.169,68.041L139.21,68.007L139.248,67.976L139.272,67.957L139.301,67.932L139.331,67.908L139.355,67.889L139.393,67.858L139.435,67.825L139.464,67.801L139.485,67.784L139.573,67.715L139.576,67.712C139.609,67.685 139.643,67.659 139.676,67.633L139.765,67.563L139.793,67.541L139.823,67.518L139.86,67.49L139.905,67.455L139.929,67.437L139.955,67.417L139.989,67.391L140.017,67.369L140.051,67.343L140.097,67.308L140.131,67.283L140.147,67.27L140.245,67.197L140.342,67.125L140.36,67.112L140.396,67.085L140.44,67.052L140.476,67.026L140.507,67.003L140.539,66.98L140.565,66.961L140.592,66.941L140.639,66.907L140.675,66.881L140.71,66.856L140.739,66.835L140.787,66.801L140.828,66.771L140.947,66.686L141.043,66.619L141.067,66.602L141.108,66.573L141.145,66.547L141.188,66.518L141.222,66.494L141.248,66.476L141.275,66.457L141.31,66.434L141.352,66.405L141.388,66.38L141.432,66.35L141.456,66.333L141.555,66.266L141.679,66.182L141.735,66.145L141.804,66.099L141.85,66.069L141.879,66.05L141.93,66.016L141.966,65.993L141.986,65.979L142.012,65.962L142.056,65.933L142.094,65.909L142.125,65.888L142.184,65.851L142.312,65.768L142.441,65.686L142.504,65.646L142.57,65.604L142.62,65.573L142.701,65.522L142.752,65.49L142.774,65.476L142.832,65.44L142.964,65.359C143.008,65.332 143.053,65.304 143.097,65.277L143.231,65.196L143.317,65.144L143.365,65.115L143.432,65.076L143.5,65.035L143.559,65C143.746,64.89 143.935,64.78 144.126,64.67L144.188,64.635L144.254,64.597C146.273,63.452 148.534,62.373 151.01,61.375ZM139.168,107.782L105.438,115.667L105.438,123.514L139.168,115.63L139.168,107.782ZM261.629,115.664L289.562,123.458L289.562,115.633L261.629,107.838L261.629,115.664ZM85.85,108.064L103.438,115.535L103.438,123.264L85.85,115.792L85.85,108.064ZM309.15,108.064L309.15,115.792L291.562,123.264L291.562,115.535L309.15,108.064ZM230.356,113.059L230.356,120.928L259.629,115.589L259.629,107.72L230.356,113.059ZM141.168,115.622L164.734,120.898L164.652,113.028L141.168,107.77L141.168,115.622ZM290.265,84.314L314.947,84.314L314.947,92.314L290.265,92.314L290.265,84.314ZM284.296,91.834L288.265,86.385L288.265,92.314L285.209,92.314L284.296,91.834ZM104.735,84.314L104.735,92.314L80.053,92.314L80.053,84.314L104.735,84.314ZM106.735,86.385L110.704,91.834C110.704,91.834 109.791,92.314 109.791,92.314L106.735,92.314L106.735,86.385ZM241.244,62.46L241.244,69.137C247.745,71.586 252.803,74.586 255.929,77.907C257.456,79.529 258.532,81.233 259.122,82.994C259.73,81.727 260.058,80.422 260.069,79.088L260.069,79.081L260.069,79.018C260.069,76.403 258.857,73.906 256.69,71.574L256.61,71.489L256.531,71.405L256.5,71.373L256.45,71.32L256.417,71.286L256.368,71.236L256.334,71.201L256.286,71.152L256.25,71.116L256.203,71.068L256.166,71.032L256.118,70.985L256.081,70.948L256.033,70.901L255.996,70.864L255.948,70.817L255.91,70.781L255.861,70.734L255.823,70.698L255.773,70.65L255.735,70.615L255.684,70.566L255.647,70.532L255.593,70.482L255.558,70.449L255.5,70.396L255.468,70.367L255.377,70.284L255.285,70.202L255.192,70.12L255.099,70.038L255.065,70.008L255.005,69.956L254.967,69.924L254.911,69.875L254.871,69.841L254.815,69.793L254.774,69.759L254.719,69.712L254.677,69.677L254.621,69.631L254.579,69.596L254.523,69.55L254.481,69.515L254.424,69.469L254.381,69.434L254.324,69.388L254.282,69.354L254.223,69.307L254.181,69.274L254.12,69.226L254.08,69.194L254.016,69.144L253.978,69.114L253.908,69.06L253.875,69.034L253.772,68.955L253.666,68.874L253.561,68.795L253.455,68.716L253.416,68.688L253.348,68.637L253.306,68.606L253.241,68.559L253.197,68.527L253.133,68.48L253.087,68.447L253.024,68.402L252.977,68.369L252.914,68.323L252.867,68.29L252.803,68.245L252.756,68.212L252.691,68.167L252.644,68.134L252.578,68.089L252.532,68.057L252.464,68.01L252.419,67.979L252.349,67.931L252.305,67.902L252.23,67.852L252.191,67.825L252.076,67.748L251.96,67.672L251.841,67.594L251.724,67.518L251.69,67.496L251.606,67.442L251.565,67.415L251.487,67.366L251.442,67.337L251.367,67.29L251.32,67.26L251.247,67.214L251.198,67.184L251.126,67.139L251.076,67.108L251.003,67.063L250.954,67.033L250.88,66.988L250.831,66.958L250.756,66.913L250.707,66.883L250.631,66.837L250.583,66.808L250.505,66.762L250.458,66.734L250.376,66.686L250.332,66.66L250.244,66.608L250.206,66.586L250.079,66.512L249.95,66.438L249.819,66.363L249.69,66.29L249.656,66.271L249.56,66.217L249.518,66.194L249.43,66.144L249.383,66.119L249.298,66.071L249.25,66.045L249.166,65.999L249.116,65.971L249.033,65.926L248.982,65.899L248.899,65.854L248.848,65.826L248.764,65.782L248.713,65.755L248.628,65.71L248.578,65.683L248.491,65.637L248.442,65.611L248.352,65.564L248.306,65.54L248.21,65.491L248.169,65.469L248.063,65.415L248.031,65.399L247.893,65.328L247.751,65.256L247.608,65.185L247.468,65.115L247.436,65.099L247.327,65.045L247.285,65.025L247.185,64.975L247.139,64.953L247.042,64.906L246.993,64.882L246.898,64.836L246.848,64.812L246.754,64.767L246.703,64.743L246.609,64.698L246.557,64.674L246.462,64.629L246.411,64.605L246.315,64.56L246.265,64.537L246.166,64.49L246.118,64.468L246.014,64.42L245.971,64.4L245.859,64.349L245.823,64.333L245.675,64.265L245.524,64.198C245.473,64.175 245.422,64.152 245.37,64.129L245.216,64.061L245.065,63.994L244.913,63.928L244.875,63.911L244.76,63.861L244.717,63.843L244.607,63.795L244.56,63.775L244.452,63.729L244.404,63.709L244.297,63.663L244.247,63.642L244.141,63.597L244.091,63.577L243.983,63.532L243.935,63.511L243.824,63.466L243.778,63.446L243.663,63.399L243.62,63.382L243.499,63.332L243.462,63.317L243.304,63.253L243.145,63.189L242.982,63.124C242.927,63.102 242.872,63.081 242.817,63.059L242.54,62.95L242.498,62.934L242.23,62.83L242.178,62.81L241.915,62.71L241.856,62.688L241.594,62.589L241.534,62.567L241.27,62.469L241.244,62.46ZM153.756,62.46L153.756,69.137C147.255,71.586 142.197,74.586 139.071,77.907C137.544,79.529 136.468,81.233 135.878,82.993C135.27,81.727 134.942,80.422 134.931,79.088L134.931,79.081L134.931,79.018C134.931,76.403 136.143,73.906 138.31,71.574C138.31,71.574 138.389,71.489 138.389,71.489L138.469,71.405L138.501,71.372L138.55,71.321L138.584,71.285L138.631,71.237L138.668,71.2L138.714,71.153L138.751,71.115L138.797,71.069L138.835,71.031L138.881,70.985L138.92,70.947L138.966,70.901L139.005,70.863L139.052,70.818L139.091,70.78L139.139,70.734L139.178,70.697L139.226,70.651L139.265,70.614L139.315,70.567L139.354,70.531L139.406,70.483L139.443,70.449L139.498,70.398L139.533,70.366L139.624,70.284L139.715,70.202L139.807,70.12L139.841,70.09L139.901,70.038L139.939,70.005L139.994,69.956L140.035,69.921L140.089,69.875L140.131,69.839L140.185,69.794L140.228,69.757L140.281,69.713L140.325,69.676L140.378,69.631L140.423,69.595L140.476,69.551L140.521,69.514L140.575,69.47L140.62,69.433L140.675,69.389L140.72,69.353L140.776,69.308L140.82,69.273L140.878,69.227L140.922,69.193L140.982,69.145L141.024,69.113L141.089,69.062L141.126,69.033L141.23,68.954L141.334,68.874L141.439,68.795L141.479,68.765L141.545,68.716L141.589,68.683L141.651,68.637L141.698,68.603L141.759,68.559L141.807,68.524L141.867,68.48L141.916,68.445L141.976,68.402L142.026,68.366L142.086,68.324L142.136,68.288L142.196,68.246L142.247,68.21L142.308,68.168L142.358,68.132L142.42,68.09L142.47,68.055L142.534,68.012L142.583,67.978L142.649,67.933L142.697,67.901L142.766,67.854L142.811,67.824L142.926,67.747L143.042,67.67L143.159,67.594L143.276,67.518L143.322,67.488L143.394,67.442L143.444,67.41L143.513,67.366L143.565,67.333L143.632,67.29L143.686,67.257L143.752,67.215L143.807,67.181L143.873,67.139L143.929,67.105L143.995,67.064L144.051,67.03L144.118,66.989L144.174,66.955L144.241,66.914L144.297,66.88L144.366,66.839L144.421,66.806L144.492,66.764L144.546,66.732L144.619,66.689L144.672,66.658L144.749,66.612L144.798,66.584L144.925,66.51L145.052,66.437L145.18,66.363L145.309,66.29L145.362,66.261L145.439,66.217L145.495,66.186L145.569,66.145L145.627,66.113L145.701,66.072L145.76,66.04L145.832,66L145.892,65.967L145.965,65.928L146.025,65.895L146.098,65.855L146.159,65.823L146.233,65.783L146.294,65.751L146.368,65.712L146.428,65.68L146.504,65.64L146.564,65.608L146.641,65.568L146.7,65.537L146.781,65.495L146.837,65.466L146.924,65.422L146.974,65.396L147.113,65.325L147.251,65.255L147.391,65.185L147.444,65.159L147.531,65.115L147.589,65.086L147.672,65.046L147.733,65.015L147.813,64.976L147.877,64.945L147.956,64.907L148.02,64.876L148.099,64.838L148.164,64.807L148.242,64.769L148.308,64.738L148.387,64.7L148.453,64.669L148.532,64.631L148.598,64.601L148.678,64.563L148.744,64.532L148.826,64.494L148.89,64.464L148.974,64.426L149.037,64.397L149.126,64.356L149.185,64.329L149.333,64.262L149.482,64.195L149.632,64.128L149.782,64.061L149.841,64.035L149.933,63.995L149.997,63.967L150.084,63.929L150.151,63.9L150.236,63.863L150.304,63.833L150.389,63.797L150.458,63.767L150.543,63.731L150.613,63.702L150.697,63.666L150.767,63.636L150.852,63.601L150.923,63.571L151.008,63.535L151.078,63.506L151.165,63.47L151.235,63.441L151.323,63.405L151.391,63.377L151.483,63.34L151.549,63.313L151.645,63.274L151.707,63.249L151.865,63.185L152.024,63.122L152.182,63.059L152.469,62.947L152.499,62.935L152.779,62.827L152.818,62.812L153.094,62.706L153.138,62.69L153.415,62.586L153.459,62.569L153.739,62.466L153.756,62.46ZM277.809,63.922L270.348,66.504L277.809,70.79L277.809,63.922ZM117.191,63.922L124.652,66.504L117.191,70.79L117.191,63.922Z"/>
        </g>
        <g transform="matrix(1.86751,0,0,1.86751,589.307,157.498)">
            <path d="M186.362,98.178C172.594,95.964 160.214,89.928 159.126,71.774C158.038,53.621 159.685,38.156 163.287,29.594C170.796,11.745 187.167,19.025 193.561,0C195.629,8.364 195.12,17.039 189.859,20.935C184.598,24.83 178.285,36.275 179.598,43.349C180.91,50.422 184.316,60.588 197.637,60.588C210.959,60.588 216.793,52.689 216.793,48.112C216.793,43.536 202.461,34.088 203.986,20.952C215.489,25.373 238.197,40.796 238.197,63.848C238.197,86.899 225.157,91.78 216.911,91.78C199.795,91.78 195.454,85.503 189.433,85.503C183.412,85.503 181.299,90.537 186.362,98.178Z" style="fill:url(#_Linear5);"/>
        </g>
        <g transform="matrix(0.980468,-0.939327,1.15387,1.20441,703.601,367.917)">
            <ellipse cx="196" cy="51.5" rx="9" ry="14.5" style="fill:url(#_Linear6);"/>
        </g>
    </g>
    <defs>
        <linearGradient id="_Linear1" x1="0" y1="0" x2="1" y2="0" gradientUnits="userSpaceOnUse" gradientTransform="matrix(9.11709e-15,148.893,-148.893,9.11709e-15,26.3132,183.505)"><stop offset="0" style="stop-color:rgb(253,238,219);stop-opacity:1"/><stop offset="1" style="stop-color:rgb(239,138,23);stop-opacity:1"/></linearGradient>
        <linearGradient id="_Linear2" x1="0" y1="0" x2="1" y2="0" gradientUnits="userSpaceOnUse" gradientTransform="matrix(9.11709e-15,148.893,-148.893,9.11709e-15,26.3132,183.505)"><stop offset="0" style="stop-color:rgb(253,238,219);stop-opacity:1"/><stop offset="1" style="stop-color:rgb(239,138,23);stop-opacity:1"/></linearGradient>
        <linearGradient id="_Linear3" x1="0" y1="0" x2="1" y2="0" gradientUnits="userSpaceOnUse" gradientTransform="matrix(1.35987e-14,65.7769,-222.084,4.02767e-15,458.099,-32.7352)"><stop offset="0" style="stop-color:rgb(244,242,236);stop-opacity:1"/><stop offset="1" style="stop-color:rgb(193,167,154);stop-opacity:1"/></linearGradient>
        <linearGradient id="_Linear4" x1="0" y1="0" x2="1" y2="0" gradientUnits="userSpaceOnUse" gradientTransform="matrix(156.632,56.6015,-56.6015,156.632,133.931,58.2719)"><stop offset="0" style="stop-color:rgb(169,169,169);stop-opacity:1"/><stop offset="0.5" style="stop-color:white;stop-opacity:1"/><stop offset="1" style="stop-color:rgb(166,166,166);stop-opacity:1"/></linearGradient>
        <linearGradient id="_Linear5" x1="0" y1="0" x2="1" y2="0" gradientUnits="userSpaceOnUse" gradientTransform="matrix(6.01168e-15,98.1781,-98.1781,6.01168e-15,193,0)"><stop offset="0" style="stop-color:rgb(247,238,76);stop-opacity:1"/><stop offset="0.47" style="stop-color:rgb(242,204,64);stop-opacity:1"/><stop offset="0.64" style="stop-color:rgb(230,127,38);stop-opacity:1"/><stop offset="0.79" style="stop-color:rgb(218,50,11);stop-opacity:1"/><stop offset="1" style="stop-color:rgb(198,2,26);stop-opacity:1"/></linearGradient>
        <linearGradient id="_Linear6" x1="0" y1="0" x2="1" y2="0" gradientUnits="userSpaceOnUse" gradientTransform="matrix(-10.2269,24.2464,-18.6082,-5.20139,201.178,39.4269)"><stop offset="0" style="stop-color:rgb(241,152,26);stop-opacity:1"/><stop offset="0.48" style="stop-color:rgb(229,112,24);stop-opacity:1"/><stop offset="1" style="stop-color:rgb(197,2,19);stop-opacity:1"/></linearGradient>
    </defs>
</svg>
